<svg xmlns="http://www.w3.org/2000/svg" version="1.1" xmlns:xlink="http://www.w3.org/1999/xlink" xmlns:svgjs="http://svgjs.com/svgjs" width="512" height="512" x="0" y="0" viewBox="0 0 512 512" style="enable-background:new 0 0 512 512" xml:space="preserve" class="">
                                    <g>
                                        <g>
                                            <g id="Page-1_34_">
                                                <g id="_x30_35---Reward-Points">
                                                    <path id="Shape_256_" d="m256 95.458c-115.025 0-208.271 93.246-208.271 208.271s93.246 208.271 208.271 208.271 208.271-93.246 208.271-208.271-93.246-208.271-208.271-208.271zm109.342 354.061c-67.71 50.725-161.423 48.193-226.296-6.114s-83.85-146.114-45.827-221.692c1.337-2.868 4.129-4.78 7.286-4.992 3.157-.211 6.179 1.312 7.886 3.976s1.829 6.046.319 8.826c-11.643 22.998-17.671 48.428-17.59 74.205 0 62.452 35.285 119.545 91.144 147.474s122.704 21.902 172.666-15.569c2.48-1.86 5.765-2.256 8.616-1.038s4.836 3.864 5.207 6.942c.369 3.079-.93 6.121-3.411 7.982zm12.844-158.877-38.01 38.539c-2.37 2.457-3.424 5.897-2.838 9.259l9.025 54.671c1.847 10.485-2.494 21.099-11.16 27.284-8.018 5.757-18.634 6.385-27.275 1.614l-47.902-26.181c-2.503-1.397-5.551-1.397-8.053 0l-47.902 26.181c-8.643 4.764-19.254 4.136-27.275-1.614-8.666-6.185-13.007-16.798-11.16-27.284l9.025-54.671c.589-3.35-.456-6.78-2.812-9.233l-38.036-38.574c-7.4-7.527-9.922-18.585-6.517-28.577 3.047-9.598 11.254-16.652 21.2-18.224l53.014-8.01c3.022-.524 5.587-2.514 6.847-5.311l23.899-50.332c4.203-9.345 13.496-15.355 23.743-15.355s19.54 6.01 23.743 15.355l23.899 50.332c1.26 2.797 3.825 4.787 6.847 5.311l53.014 8.01c9.947 1.572 18.153 8.626 21.2 18.224 3.405 9.996.884 21.055-6.516 28.586zm40.344 95.606c-2.183 4.25-7.391 5.936-11.651 3.772s-5.968-7.365-3.822-11.634c11.792-23.115 17.903-48.708 17.825-74.657 0-62.452-35.285-119.545-91.144-147.474-55.859-27.93-122.704-21.902-172.666 15.569-3.834 2.876-9.274 2.099-12.149-1.736-2.876-3.834-2.099-9.274 1.736-12.149 67.795-50.807 161.659-48.206 226.537 6.276s83.666 146.483 45.344 222.041z" fill="currentColor" class=""></path>
                                                    <path id="Shape_255_" d="m360.908 261.025-53.014-8.01c-8.744-1.367-16.23-7.005-19.959-15.03l-23.899-50.332c-1.348-3.269-4.535-5.401-8.071-5.401s-6.722 2.133-8.071 5.401l-23.899 50.332c-3.73 8.026-11.216 13.663-19.959 15.03l-53.014 8.01c-3.483.594-6.325 3.119-7.324 6.508-1.317 3.799-.388 8.015 2.404 10.908l38.036 38.556c6.251 6.41 9.069 15.417 7.585 24.246l-9.025 54.671c-.737 3.933.845 7.94 4.07 10.309 2.603 1.925 6.096 2.136 8.912.538l47.902-26.181c7.691-4.224 17.007-4.224 24.697 0l47.902 26.181c2.817 1.593 6.307 1.382 8.912-.538 3.225-2.369 4.807-6.376 4.07-10.309l-9.025-54.671c-1.498-8.848 1.324-17.878 7.593-24.298l38.027-38.539c2.791-2.897 3.72-7.116 2.404-10.917-1.002-3.352-3.808-5.853-7.254-6.464z" fill="currentColor" class=""></path>
                                                    <path id="Shape_254_" d="m247.322 8.678v52.068c0 4.793 3.885 8.678 8.678 8.678s8.678-3.885 8.678-8.678v-52.068c0-4.793-3.885-8.678-8.678-8.678s-8.678 3.885-8.678 8.678z" fill="currentColor" class=""></path>
                                                    <path id="Shape_253_" d="m308.068 8.678v60.746c0 4.793 3.885 8.678 8.678 8.678s8.678-3.885 8.678-8.678v-60.746c0-4.793-3.885-8.678-8.678-8.678s-8.678 3.885-8.678 8.678z" fill="currentColor" class=""></path>
                                                    <path id="Shape_252_" d="m368.814 95.458c0 4.793 3.885 8.678 8.678 8.678s8.678-3.885 8.678-8.678v-34.712c0-4.793-3.885-8.678-8.678-8.678s-8.678 3.885-8.678 8.678z" fill="currentColor" class=""></path>
                                                    <path id="Shape_251_" d="m377.492 34.712c4.793 0 8.678-3.885 8.678-8.678v-17.356c0-4.793-3.885-8.678-8.678-8.678s-8.678 3.885-8.678 8.678v17.356c0 4.793 3.885 8.678 8.678 8.678z" fill="currentColor" class=""></path>
                                                    <path id="Shape_250_" d="m438.237 43.39c-4.793 0-8.678 3.885-8.678 8.678v107.607c6.355 7.586 12.155 15.619 17.356 24.038v-131.645c0-4.793-3.885-8.678-8.678-8.678z" fill="currentColor" class=""></path>
                                                    <path id="Shape_249_" d="m186.576 8.678v60.746c0 4.793 3.885 8.678 8.678 8.678s8.678-3.885 8.678-8.678v-60.746c0-4.793-3.885-8.678-8.678-8.678-4.792 0-8.678 3.885-8.678 8.678z" fill="currentColor" class=""></path>
                                                    <path id="Shape_248_" d="m134.508 52.068c-4.793 0-8.678 3.885-8.678 8.678v34.712c0 4.793 3.885 8.678 8.678 8.678s8.678-3.885 8.678-8.678v-34.712c0-4.793-3.885-8.678-8.678-8.678z" fill="currentColor" class=""></path>
                                                    <path id="Shape_247_" d="m143.186 8.678c0-4.793-3.885-8.678-8.678-8.678s-8.678 3.885-8.678 8.678v17.356c0 4.793 3.885 8.678 8.678 8.678s8.678-3.885 8.678-8.678z" fill="currentColor" class=""></path>
                                                    <path id="Shape_246_" d="m65.085 52.068v131.645c5.201-8.419 11.001-16.452 17.356-24.038v-107.607c0-4.793-3.885-8.678-8.678-8.678s-8.678 3.885-8.678 8.678z" fill="currentColor" class=""></path>
                                                </g>
                                            </g>
                                        </g>
                                    </g>
                                </svg>