<svg xmlns="http://www.w3.org/2000/svg" version="1.1" xmlns:xlink="http://www.w3.org/1999/xlink" xmlns:svgjs="http://svgjs.com/svgjs" width="24" height="24" x="0" y="0" viewBox="0 0 512 512" style="enable-background:new 0 0 512 512" xml:space="preserve" class="">
                                    <g>
                                        <g xmlns="http://www.w3.org/2000/svg">
                                            <path d="m279.014 379.589c9.805 2.841 18.871 7.432 26.821 13.438l28.73-57.46c-9.805-2.841-18.872-7.432-26.821-13.438z" fill="currentColor" class=""></path>
                                            <path d="m75.857 379.589c9.805 2.841 18.872 7.432 26.822 13.438l28.73-57.461c-9.805-2.841-18.872-7.432-26.822-13.438z" fill="currentColor" class=""></path>
                                            <path d="m407.413 322.129c-7.95 6.006-17.016 10.597-26.821 13.438l28.73 57.46c7.95-6.006 17.016-10.597 26.821-13.438z" fill="currentColor" class=""></path>
                                            <path d="m305.835 118.973c-7.95 6.006-17.016 10.597-26.821 13.438l28.73 57.46c7.95-6.006 17.016-10.597 26.821-13.438z" fill="currentColor" class=""></path>
                                            <path d="m177.435 176.433c9.805 2.841 18.872 7.432 26.822 13.438l28.73-57.461c-9.805-2.841-18.872-7.432-26.822-13.438z" fill="currentColor" class=""></path>
                                            <circle cx="52.844" cy="459.156" r="52.844" fill="currentColor" class=""></circle>
                                            <circle cx="256" cy="459.156" r="52.844" fill="currentColor" class=""></circle>
                                            <circle cx="154.422" cy="256" r="52.844" fill="currentColor" class=""></circle>
                                            <circle cx="459.156" cy="459.156" r="52.844" fill="currentColor" class=""></circle>
                                            <circle cx="357.578" cy="256" r="52.844" fill="currentColor" class=""></circle>
                                            <circle cx="256" cy="52.844" r="52.844" fill="currentColor" class=""></circle>
                                        </g>
                                    </g>
                                </svg>