<svg xmlns="http://www.w3.org/2000/svg" version="1.1" xmlns:xlink="http://www.w3.org/1999/xlink" xmlns:svgjs="http://svgjs.com/svgjs" width="24" height="24" x="0" y="0" viewBox="0 0 60 60" style="enable-background:new 0 0 512 512" xml:space="preserve" class="">
                                    <g>
                                        <path xmlns="http://www.w3.org/2000/svg" d="m55 41h-3v-5c0-4.411-3.589-8-8-8h-12v-9h3c1.104 0 2-.896 2-2v-10c0-1.104-.896-2-2-2h-10c-1.104 0-2 .896-2 2v10c0 1.104.896 2 2 2h3v9h-12c-4.411 0-8 3.589-8 8v5h-3c-1.104 0-2 .896-2 2v10c0 1.104.896 2 2 2h10c1.104 0 2-.896 2-2v-10c0-1.104-.896-2-2-2h-3v-5c0-2.206 1.794-4 4-4h12v9h-3c-1.104 0-2 .896-2 2v10c0 1.104.896 2 2 2h10c1.104 0 2-.896 2-2v-10c0-1.104-.896-2-2-2h-3v-9h12c2.206 0 4 1.794 4 4v5h-3c-1.104 0-2 .896-2 2v10c0 1.104.896 2 2 2h10c1.104 0 2-.896 2-2v-10c0-1.104-.896-2-2-2z" fill="currentColor"></path>
                                    </g>
                                </svg>