<svg xmlns="http://www.w3.org/2000/svg" version="1.1" xmlns:xlink="http://www.w3.org/1999/xlink" xmlns:svgjs="http://svgjs.com/svgjs" width="512" height="512" x="0" y="0" viewBox="0 0 32 32" style="enable-background:new 0 0 512 512" xml:space="preserve" class="">
                                    <g>
                                        <path d="m22 18.5c0 2.481 2.019 4.5 4.5 4.5h3.5v4c0 1.105-.895 2-2 2h-10v-7.211c.882-.386 1.5-1.264 1.5-2.289 0-1.381-1.119-2.5-2.5-2.5s-2.5 1.119-2.5 2.5c0 1.025.618 1.903 1.5 2.289v7.211h-3v-5c0-.345-.178-.665-.47-.848l-2.066-1.291c.231-1.588-1.004-2.861-2.464-2.861-1.381 0-2.5 1.119-2.5 2.5 0 2.026 2.274 3.185 3.912 2.062l1.588.993v4.445h-7c-1.105 0-2-.895-2-2v-20.5c0-1.933 1.567-3.5 3.5-3.5h19.25c.69 0 1.25.56 1.25 1.25s-.56 1.25-1.25 1.25h-19c-.688 0-1.25.562-1.25 1.25s.562 1.25 1.25 1.25h22.25c1.105 0 2 .895 2 2v4h-3.5c-2.481 0-4.5 2.019-4.5 4.5z" fill="currentColor" class=""></path>
                                        <path d="m26.5 16h3.5v5h-3.5c-1.378 0-2.5-1.121-2.5-2.5s1.122-2.5 2.5-2.5z" fill="currentColor" class=""></path>
                                    </g>
                                </svg>