<svg xmlns="http://www.w3.org/2000/svg" version="1.1" xmlns:xlink="http://www.w3.org/1999/xlink" xmlns:svgjs="http://svgjs.com/svgjs" width="512" height="512" x="0" y="0" viewBox="0 0 32 32" style="enable-background:new 0 0 512 512" xml:space="preserve" class="">
                                    <g>
                                        <path d="m25 19h3v4h-3c-1.103 0-2-.897-2-2s.897-2 2-2z" fill="currentColor" class=""></path>
                                        <path d="m28 24.5v3.5c0 1.105-.895 2-2 2h-20c-1.105 0-2-.895-2-2v-14c0-1.105.895-2 2-2h20c1.105 0 2 .895 2 2v3.5h-3c-1.93 0-3.5 1.57-3.5 3.5s1.57 3.5 3.5 3.5z" fill="currentColor" class=""></path>
                                        <path d="m13.5 4.5c0-1.381 1.119-2.5 2.5-2.5s2.5 1.119 2.5 2.5c0 1.025-.618 1.903-1.5 2.289v3.711h-2v-3.711c-.882-.386-1.5-1.264-1.5-2.289z" fill="currentColor" class=""></path>
                                        <path d="m5.5 5.5c0-1.381 1.119-2.5 2.5-2.5 1.576 0 2.807 1.46 2.428 3.071l2.172 1.629c.252.189.4.485.4.8v2h-2v-1.5l-1.776-1.333c-1.702.964-3.724-.289-3.724-2.167z" fill="currentColor" class=""></path>
                                        <path d="m26.5 5.5c0 1.886-2.028 3.127-3.724 2.168l-1.776 1.332v1.5h-2v-2c0-.315.148-.611.4-.8l2.172-1.628c-.379-1.613.853-3.072 2.428-3.072 1.381 0 2.5 1.119 2.5 2.5z" fill="currentColor" class=""></path>
                                    </g>
                                </svg>