<svg xmlns="http://www.w3.org/2000/svg" version="1.1" xmlns:xlink="http://www.w3.org/1999/xlink" xmlns:svgjs="http://svgjs.com/svgjs" width="24" height="24" x="0" y="0" viewBox="0 0 32 32" style="enable-background:new 0 0 512 512" xml:space="preserve" class="">
                                    <g>
                                        <path xmlns="http://www.w3.org/2000/svg" d="m31.708 11.527-7.352-7.352c-.186-.186-.437-.291-.699-.293l-15.179-.116c-.268-.002-.525.103-.715.293l-7.469 7.469c-.39.391-.39 1.023 0 1.414l15 15c.391.391 1.024.391 1.414 0l15-15c.391-.391.391-1.024 0-1.415zm-5.8 1.422-7.152 7.223c-.389.393-1.022.396-1.415.007s-.396-1.022-.007-1.415l6.475-6.537-2.188-2.332c-.383-.397-.371-1.031.027-1.414.194-.188.456-.287.725-.279.27.008.525.125.707.324l2.848 3.037c.366.392.358 1.004-.02 1.386z" fill="currentColor" class=""></path>
                                    </g>
                                </svg>