<svg xmlns="http://www.w3.org/2000/svg" version="1.1" xmlns:xlink="http://www.w3.org/1999/xlink" xmlns:svgjs="http://svgjs.com/svgjs" width="512" height="512" x="0" y="0" viewBox="0 0 48 48" style="enable-background:new 0 0 512 512" xml:space="preserve" class="">
                                        <g>
                                            <path d="m24 5.884a12.257 12.257 0 1 0 12.257 12.258 12.271 12.271 0 0 0 -12.257-12.258zm8.138 10.164-4.9 3.547a.071.071 0 0 0 -.027.081l1.86 5.744a.073.073 0 0 1 -.112.082l-4.9-3.548a.072.072 0 0 0 -.086 0l-4.9 3.546a.073.073 0 0 1 -.112-.082l1.914-5.742a.074.074 0 0 0 -.026-.082l-4.9-3.546a.073.073 0 0 1 .051-.132h5.993a.072.072 0 0 0 .069-.05l1.888-5.759a.072.072 0 0 1 .138 0l1.888 5.759a.071.071 0 0 0 .069.05h6.055a.073.073 0 0 1 .038.132z" fill="currentcolor" class=""></path>
                                            <path d="m24 1a17.142 17.142 0 1 0 17.141 17.141 17.141 17.141 0 0 0 -17.141-17.141zm0 31.4a14.257 14.257 0 1 1 14.257-14.258 14.273 14.273 0 0 1 -14.257 14.258z" fill="currentcolor" class=""></path>
                                            <path d="m9.22 42.505 5.51-.491 1.97 4.055.448.931 5.231-9.8a18.982 18.982 0 0 1 -8.762-3z" fill="currentcolor" class=""></path>
                                            <path d="m25.722 37.2 5.219 9.8.448-.931 1.973-4.055 5.51.491-4.411-8.354a19.014 19.014 0 0 1 -8.739 3.049z" fill="currentcolor" class=""></path>
                                        </g>
                                    </svg>