<svg xmlns="http://www.w3.org/2000/svg" version="1.1" xmlns:xlink="http://www.w3.org/1999/xlink" xmlns:svgjs="http://svgjs.com/svgjs" width="24" height="24" x="0" y="0" viewBox="0 0 512 512" style="enable-background:new 0 0 512 512" xml:space="preserve" class="">
                                    <g>
                                        <path xmlns="http://www.w3.org/2000/svg" d="m115 362c-38.598 0-70-31.402-70-70s31.402-70 70-70 70 31.402 70 70-31.401 70-70 70z" fill="currentColor" class=""></path>
                                        <path xmlns="http://www.w3.org/2000/svg" d="m222.109 369.292c17.175 7.021 35.728 10.708 54.891 10.708 79.953 0 145-65.047 145-145s-65.047-145-145-145c-65.942 0-121.744 44.244-139.277 104.606 44.23 10.316 77.277 50.068 77.277 97.394 0 20.742-6.361 40.02-17.216 56.012 8.98 6.253 17.115 13.401 24.325 21.28zm54.891-119.292c-30.327 0-55-24.673-55-55 0-25.127 16.943-46.356 40-52.904v-7.096c0-8.284 6.716-15 15-15s15 6.716 15 15v7.096c23.057 6.547 40 27.777 40 52.904 0 8.284-6.716 15-15 15s-15-6.716-15-15c0-13.785-11.215-25-25-25s-25 11.215-25 25 11.215 25 25 25c30.327 0 55 24.673 55 55 0 25.127-16.943 46.356-40 52.904v7.096c0 8.284-6.716 15-15 15s-15-6.716-15-15v-7.096c-23.057-6.547-40-27.777-40-52.904 0-8.284 6.716-15 15-15s15 6.716 15 15c0 13.785 11.215 25 25 25s25-11.215 25-25-11.215-25-25-25z" fill="currentColor" class=""></path>
                                        <path xmlns="http://www.w3.org/2000/svg" d="m443.17 68.83c-44.386-44.386-103.399-68.83-166.17-68.83s-121.784 24.444-166.17 68.83c-41.649 41.649-65.738 96.177-68.55 154.604 16.59-17.586 39.467-29.179 65-31.138 19.11-75.921 87.952-132.296 169.72-132.296 96.495 0 175 78.505 175 175s-78.505 175-175 175c-10.079 0-20.018-.85-29.742-2.501 8.281 18.398 12.742 38.599 12.742 59.501v2.388c5.645.405 11.314.612 17 .612 62.771 0 121.784-24.444 166.17-68.83s68.83-103.399 68.83-166.17-24.444-121.785-68.83-166.17z" fill="currentColor" class=""></path>
                                        <path xmlns="http://www.w3.org/2000/svg" d="m177.151 370.282c-17.078 13.587-38.681 21.718-62.151 21.718-23.469 0-45.073-8.131-62.151-21.718-31.77 20.486-52.849 56.186-52.849 96.718v30c0 8.284 6.716 15 15 15h200c8.284 0 15-6.716 15-15v-30c0-40.532-21.079-76.231-52.849-96.718z" fill="currentColor" class=""></path>
                                    </g>
                                </svg>