<svg xmlns="http://www.w3.org/2000/svg" version="1.1" xmlns:xlink="http://www.w3.org/1999/xlink" xmlns:svgjs="http://svgjs.com/svgjs" width="24" height="24" x="0" y="0" viewBox="0 0 24 24" style="enable-background:new 0 0 512 512" xml:space="preserve" class="">
                                    <g>
                                        <circle xmlns="http://www.w3.org/2000/svg" cx="14" cy="6" r="6" fill="currentColor" class=""></circle>
                                        <path xmlns="http://www.w3.org/2000/svg" d="m17 14h-6a7.008 7.008 0 0 0 -7 7v2a1 1 0 0 0 1 1h18a1 1 0 0 0 1-1v-2a7.008 7.008 0 0 0 -7-7z" fill="currentColor" class=""></path>
                                        <path xmlns="http://www.w3.org/2000/svg" d="m4 7a1 1 0 0 0 -1 1v2h-2a1 1 0 0 0 0 2h2v2a1 1 0 0 0 2 0v-2h2a1 1 0 0 0 0-2h-2v-2a1 1 0 0 0 -1-1z" fill="currentColor" class=""></path>
                                    </g>
                                </svg>