<svg xmlns="http://www.w3.org/2000/svg" version="1.1" xmlns:xlink="http://www.w3.org/1999/xlink" xmlns:svgjs="http://svgjs.com/svgjs" width="24" height="24" x="0" y="0" viewBox="0 0 512 512" style="enable-background:new 0 0 512 512" xml:space="preserve" class="">
                                    <g>
                                        <g xmlns="http://www.w3.org/2000/svg">
                                            <path d="m377 105.95h-18v64h63v-19c0-24.813-20.187-45-45-45z" fill="currentColor" class=""></path>
                                            <path d="m314 0h-180c-8.284 0-15 6.716-15 15v154.95h210v-154.95c0-8.284-6.716-15-15-15z" fill="currentColor" class=""></path>
                                            <path d="m89 105.95h-42c-12.557 0-24.361 4.888-33.236 13.764-8.876 8.875-13.764 20.679-13.764 33.236v17h89z" fill="currentColor" class=""></path>
                                            <path d="m342 344c0 22.194 18.289 49 41 49h114c8.284 0 15-6.716 15-15v-68c0-8.284-6.716-15-15-15h-114c-22.711 0-41 26.806-41 49zm65-.003c0 8.285-6.716 15-15 15s-15-6.715-15-15c0-8.284 6.716-15 15-15s15 6.716 15 15z" fill="currentColor" class=""></path>
                                            <path d="m331.889 397.213c-12.639-15.134-19.889-34.529-19.889-53.213s7.25-38.079 19.889-53.213c13.888-16.629 32.04-25.787 51.111-25.787h103v-45c0-2.483-.172-4.923-.503-7.309-1.017-7.334-7.387-12.74-14.791-12.74h-470.706v260.729c0 28.298 20.187 51.32 45 51.32h396c24.813 0 45-23.022 45-51.32v-37.68h-103c-19.071 0-37.223-9.158-51.111-25.787z" fill="currentColor" class=""></path>
                                        </g>
                                    </g>
                                </svg>