<svg xmlns="http://www.w3.org/2000/svg" version="1.1" xmlns:xlink="http://www.w3.org/1999/xlink" xmlns:svgjs="http://svgjs.com/svgjs" width="24" height="24" x="0" y="0" viewBox="0 0 512 512" style="enable-background:new 0 0 512 512" xml:space="preserve" class="">
                                    <g>
                                        <path xmlns="http://www.w3.org/2000/svg" d="m256 202.5c-53.761719 0-97.5 43.738281-97.5 97.5v60h195v-60c0-53.761719-43.738281-97.5-97.5-97.5zm0 0" fill="currentColor" class=""></path>
                                        <path xmlns="http://www.w3.org/2000/svg" d="m323.5 135c0-37.222656-30.277344-67.5-67.5-67.5s-67.5 30.277344-67.5 67.5 30.277344 67.5 67.5 67.5 67.5-30.277344 67.5-67.5zm0 0" fill="currentColor" class=""></path>
                                        <path xmlns="http://www.w3.org/2000/svg" d="m166 67.5c0-37.222656-30.277344-67.5-67.5-67.5s-67.5 30.277344-67.5 67.5 30.277344 67.5 67.5 67.5 67.5-30.277344 67.5-67.5zm0 0" fill="currentColor" class=""></path>
                                        <path xmlns="http://www.w3.org/2000/svg" d="m413.5 135c-39.625 0-73.660156 23.851562-88.894531 57.875 35.316406 22.695312 58.894531 62.121094 58.894531 107.125h128.5v-67.5c0-53.761719-44.738281-97.5-98.5-97.5zm0 0" fill="currentColor" class=""></path>
                                        <path xmlns="http://www.w3.org/2000/svg" d="m481 67.5c0-37.222656-30.277344-67.5-67.5-67.5s-67.5 30.277344-67.5 67.5 30.277344 67.5 67.5 67.5 67.5-30.277344 67.5-67.5zm0 0" fill="currentColor" class=""></path>
                                        <path xmlns="http://www.w3.org/2000/svg" d="m187.394531 192.875c-15.234375-34.023438-49.269531-57.875-88.894531-57.875-53.761719 0-98.5 43.738281-98.5 97.5v67.5h128.5c0-45.003906 23.578125-84.429688 58.894531-107.125zm0 0" fill="currentColor" class=""></path>
                                    </g>
                                </svg>