<svg xmlns="http://www.w3.org/2000/svg" version="1.1" xmlns:xlink="http://www.w3.org/1999/xlink" xmlns:svgjs="http://svgjs.com/svgjs" width="24" height="24" x="0" y="0" viewBox="0 0 32 32" style="enable-background:new 0 0 512 512" xml:space="preserve" class="">
                                    <g>
                                        <g xmlns="http://www.w3.org/2000/svg" id="Layer_24" data-name="Layer 24">
                                            <path d="m31 12a1 1 0 0 1 -.29.71l-6 6a1 1 0 0 1 -.71.29 1 1 0 0 1 -.38-.07 1 1 0 0 1 -.62-.93v-3h-9a1 1 0 0 1 -1-1v-4a1 1 0 0 1 1-1h9v-3a1 1 0 0 1 1.71-.7l6 6a1 1 0 0 1 .29.7zm-13 5h-9v-3a1 1 0 0 0 -.62-.92 1 1 0 0 0 -1.09.21l-6 6a1 1 0 0 0 -.29.71 1 1 0 0 0 .29.71l6 6a1 1 0 0 0 .71.29.84.84 0 0 0 .38-.08 1 1 0 0 0 .62-.92v-3h9a1 1 0 0 0 1-1v-4a1 1 0 0 0 -1-1z" fill="currentColor" class=""></path>
                                        </g>
                                    </g>
                                </svg>